<?xml version="1.0" standalone="no"?>
<!DOCTYPE svg PUBLIC "-//W3C//DTD SVG 20010904//EN"
 "http://www.w3.org/TR/2001/REC-SVG-20010904/DTD/svg10.dtd">
<svg version="1.0" xmlns="http://www.w3.org/2000/svg"
 width="260.000000pt" height="260.000000pt" viewBox="0 0 260.000000 260.000000"
 preserveAspectRatio="xMidYMid meet">
<metadata>
Created by potrace 1.11, written by Peter Selinger 2001-2013
</metadata>
<g transform="translate(0.000000,260.000000) scale(0.100000,-0.100000)"
fill="#000000" stroke="none">
<path d="M2440 2128 c-144 -97 -242 -182 -395 -338 -157 -161 -267 -299 -487
-610 -64 -91 -121 -170 -126 -176 -5 -5 -15 -20 -21 -33 -17 -31 -24 -20 -10
15 6 16 12 36 14 44 5 26 96 259 145 375 140 326 239 521 322 633 l39 53 -21
26 c-11 15 -29 33 -40 40 -25 17 -46 7 -156 -75 -138 -103 -249 -222 -538
-577 -414 -507 -465 -564 -574 -636 -92 -60 -159 -83 -242 -82 -68 0 -142 28
-167 62 -15 21 -9 26 62 46 89 25 125 67 125 144 0 99 -66 162 -160 154 -91
-8 -164 -75 -195 -179 -15 -52 -15 -60 4 -130 41 -152 231 -245 431 -210 14 2
25 5 25 6 0 1 11 3 25 6 40 7 162 70 205 106 111 92 156 144 457 528 271 346
276 352 176 200 -159 -239 -229 -409 -230 -555 0 -95 6 -133 32 -190 19 -42
70 -94 93 -96 7 0 20 -2 29 -4 36 -7 90 20 128 62 21 24 89 119 151 211 151
224 236 345 340 482 132 174 148 188 57 50 -149 -224 -223 -392 -234 -533 -19
-230 123 -330 328 -233 117 55 266 172 334 262 48 62 7 116 -59 76 -18 -10
-83 -60 -146 -110 -103 -83 -208 -149 -219 -138 -15 16 100 280 264 606 126
251 246 463 340 604 51 76 52 80 38 107 -12 25 -50 60 -64 59 -3 -1 -39 -24
-80 -52z"/>
</g>
</svg>
